<svg width="25" height="25" viewBox="0 0 25 25" fill="none" xmlns="http://www.w3.org/2000/svg">
<path d="M17.7087 12.375C18.3529 12.3752 18.8748 12.8978 18.8748 13.542C18.8746 14.1861 18.3528 14.7078 17.7087 14.708C17.0645 14.708 16.5419 14.1862 16.5417 13.542C16.5417 12.8976 17.0644 12.375 17.7087 12.375Z" fill="#8F6FEF" stroke="#8F6FEF" stroke-width="0.25"/>
<path d="M17.7087 16.5417C18.3529 16.5419 18.8748 17.0645 18.8748 17.7087C18.8746 18.3528 18.3528 18.8746 17.7087 18.8748C17.0645 18.8748 16.5419 18.3529 16.5417 17.7087C16.5417 17.0644 17.0644 16.5417 17.7087 16.5417Z" fill="#8F6FEF" stroke="#8F6FEF" stroke-width="0.25"/>
<path d="M12.5002 12.375C13.1444 12.3752 13.6663 12.8978 13.6663 13.542C13.6661 14.1861 13.1443 14.7078 12.5002 14.708C11.856 14.708 11.3334 14.1862 11.3333 13.542C11.3333 12.8976 11.8559 12.375 12.5002 12.375Z" fill="#8F6FEF" stroke="#8F6FEF" stroke-width="0.25"/>
<path d="M12.5002 16.5417C13.1444 16.5419 13.6663 17.0645 13.6663 17.7087C13.6661 18.3528 13.1443 18.8746 12.5002 18.8748C11.856 18.8748 11.3334 18.3529 11.3333 17.7087C11.3333 17.0644 11.8559 16.5417 12.5002 16.5417Z" fill="#8F6FEF" stroke="#8F6FEF" stroke-width="0.25"/>
<path d="M7.29199 12.375C7.93618 12.3752 8.45801 12.8978 8.45801 13.542C8.45783 14.1861 7.93607 14.7078 7.29199 14.708C6.64778 14.708 6.12518 14.1862 6.125 13.542C6.125 12.8976 6.64767 12.375 7.29199 12.375Z" fill="#8F6FEF" stroke="#8F6FEF" stroke-width="0.25"/>
<path d="M7.29199 16.5417C7.93618 16.5419 8.45801 17.0645 8.45801 17.7087C8.45783 18.3528 7.93607 18.8746 7.29199 18.8748C6.64778 18.8748 6.12518 18.3529 6.125 17.7087C6.125 17.0644 6.64767 16.5417 7.29199 16.5417Z" fill="#8F6FEF" stroke="#8F6FEF" stroke-width="0.25"/>
<path d="M17.7083 1.698C18.2087 1.698 18.6145 2.10374 18.6145 2.60425V3.35132C18.8449 3.37048 19.0653 3.39238 19.2756 3.42065C20.4334 3.57632 21.4017 3.8965 22.1829 4.60034L22.3372 4.74585L22.4827 4.90015C23.1867 5.68135 23.5066 6.6494 23.6624 7.80737C23.8232 9.00424 23.8225 10.5303 23.8225 12.4412V14.6423C23.8225 16.5532 23.8232 18.0793 23.6624 19.2761C23.4962 20.5112 23.1437 21.5309 22.3372 22.3376C21.5305 23.1441 20.5106 23.4967 19.2756 23.6628C18.0788 23.8236 16.5526 23.823 14.6418 23.823H10.3577C8.44678 23.823 6.92071 23.8237 5.72388 23.6628C4.48879 23.4967 3.46902 23.1442 2.66235 22.3376C1.85571 21.531 1.5032 20.5112 1.33716 19.2761C1.17624 18.0793 1.17698 16.5533 1.177 14.6423V12.4412C1.17698 10.5302 1.17625 9.00422 1.33716 7.80737C1.5032 6.57227 1.8557 5.55252 2.66235 4.74585C3.46902 3.93919 4.48878 3.58671 5.72388 3.42065C5.93426 3.39237 6.15465 3.37048 6.38501 3.35132V2.60425C6.38501 2.10385 6.79091 1.69817 7.29126 1.698C7.79176 1.698 8.19751 2.10374 8.19751 2.60425V3.27222C8.85445 3.26121 9.57332 3.26049 10.3577 3.2605H14.6418C15.4261 3.26049 16.1451 3.26122 16.802 3.27222V2.60425C16.802 2.10374 17.2078 1.698 17.7083 1.698ZM3.0022 10.281C2.99112 10.9296 2.9895 11.663 2.9895 12.4998V14.5837C2.9895 16.5734 2.9915 17.9747 3.13403 19.0349C3.27307 20.0688 3.53084 20.6417 3.94458 21.0554C4.35832 21.4691 4.93118 21.727 5.96509 21.866C7.02523 22.0085 8.42658 22.0105 10.4163 22.0105H14.5833C16.573 22.0105 17.9742 22.0085 19.0344 21.866C20.0683 21.727 20.6412 21.4691 21.0549 21.0554C21.4687 20.6417 21.7265 20.0687 21.8655 19.0349C22.008 17.9747 22.01 16.5734 22.01 14.5837V12.4998C22.01 11.663 22.0084 10.9296 21.9973 10.281H3.0022ZM10.4163 5.073C8.42658 5.073 7.02523 5.07499 5.96509 5.21753C4.93118 5.35656 4.35832 5.61434 3.94458 6.02808C3.53084 6.44181 3.27307 7.01468 3.13403 8.04858C3.11602 8.18256 3.10294 8.32273 3.08911 8.46851H21.9114C21.8975 8.32273 21.8835 8.1826 21.8655 8.04858C21.7265 7.0147 21.4687 6.44181 21.0549 6.02808C20.6412 5.6144 20.0683 5.35654 19.0344 5.21753C17.9742 5.07499 16.573 5.073 14.5833 5.073H10.4163Z" fill="#8F6FEF" stroke="#8F6FEF" stroke-width="0.25"/>
</svg>
